<?xml version="1.0" encoding="utf-8"?>
<!-- Generator: Adobe Illustrator 19.0.1, SVG Export Plug-In . SVG Version: 6.00 Build 0)  -->
<svg version="1.1" xmlns="http://www.w3.org/2000/svg" xmlns:xlink="http://www.w3.org/1999/xlink" x="0px" y="0px"
	 viewBox="0 0 612 792" style="enable-background:new 0 0 612 792;" xml:space="preserve">
<style type="text/css">
	.st0{display:none;}
	.st1{display:inline;fill:#183E5E;}
	.st2{fill:#FFFFFF;}
	.st3{fill:#78ff00;}
</style>
<g id="Layer_2" class="st0">
	<rect x="69.8" y="251.6" class="st1" width="462.2" height="185"/>
</g>
<g id="Layer_1">
	<path class="st2" d="M120,306.1c9.3,0,17.6,2.9,24.7,8.6v-35.1c0-2.1,0.7-3.9,2.1-5.2c1.4-1.4,3.1-2.1,5.2-2.1
		c2.1,0,3.8,0.7,5.2,2.1c1.4,1.4,2.1,3.1,2.1,5.2v65.8c0,11-3.8,20.2-11.5,27.8c-7.8,7.7-17.1,11.5-27.8,11.5
		c-10.9,0-20.2-3.8-27.8-11.5c-7.7-7.7-11.5-17-11.5-27.8c0-10.9,3.8-20.2,11.5-27.8C99.8,309.9,109.1,306.1,120,306.1z
		 M144.7,345.4c0-3.4-0.6-6.5-1.9-9.5c-1.3-3-3-5.6-5.3-7.8c-2.2-2.2-4.8-4-7.8-5.3c-3-1.3-6.2-2-9.6-2c-3.5,0-6.7,0.7-9.7,2
		c-3,1.3-5.6,3.1-7.8,5.3c-2.2,2.2-3.9,4.8-5.2,7.8c-1.3,3-1.9,6.2-1.9,9.6s0.6,6.6,1.9,9.6c1.3,3,3,5.6,5.2,7.8
		c2.2,2.2,4.8,4,7.8,5.3c3,1.3,6.2,2,9.7,2c3.4,0,6.6-0.7,9.6-2c3-1.3,5.6-3.1,7.8-5.3c2.2-2.2,4-4.9,5.3-7.8
		C144,352,144.7,348.8,144.7,345.4z"/>
	<path class="st2" d="M195.2,313.4v71c0,4.6-0.9,9-2.7,13.1c-1.8,4.1-4.3,7.7-7.3,10.8s-6.7,5.5-10.8,7.3c-4.1,1.8-8.5,2.7-13.1,2.7
		c-2.1,0-3.9-0.7-5.2-2.1c-1.4-1.4-2.1-3.2-2.1-5.3s0.7-3.9,2.1-5.2c1.4-1.4,3.1-2.1,5.2-2.1c2.7,0,5.2-0.5,7.5-1.5
		c2.3-1,4.4-2.4,6.2-4.1s3.2-3.8,4.2-6.2c1-2.3,1.5-4.9,1.5-7.5v-71c0-2.1,0.7-3.8,2.1-5.2c1.4-1.4,3.2-2.1,5.2-2.1
		c2,0,3.7,0.7,5.2,2.1C194.4,309.6,195.2,311.4,195.2,313.4z"/>
	<path class="st3" d="M321.5,345.1c0,2.4-0.8,4.4-2.5,6.1s-3.7,2.5-6.1,2.5s-4.4-0.8-6.1-2.5s-2.5-3.7-2.5-6.1s0.8-4.4,2.5-6.1
		s3.7-2.5,6.1-2.5s4.4,0.8,6.1,2.5S321.5,342.7,321.5,345.1z"/>
	<path class="st3" d="M410.5,345.1c0,2.4-0.8,4.4-2.5,6.1s-3.7,2.5-6.1,2.5s-4.4-0.8-6.1-2.5s-2.5-3.7-2.5-6.1s0.8-4.4,2.5-6.1
		s3.7-2.5,6.1-2.5s4.4,0.8,6.1,2.5S410.5,342.7,410.5,345.1z"/>
	<path class="st3" d="M490.5,345.1c0,2.4-0.8,4.4-2.5,6.1s-3.7,2.5-6.1,2.5s-4.4-0.8-6.1-2.5s-2.5-3.7-2.5-6.1s0.8-4.4,2.5-6.1
		s3.7-2.5,6.1-2.5s4.4,0.8,6.1,2.5S490.5,342.7,490.5,345.1z"/>
	<path class="st3" d="M128.5,345.1c0,2.4-0.8,4.4-2.5,6.1s-3.7,2.5-6.1,2.5s-4.4-0.8-6.1-2.5s-2.5-3.7-2.5-6.1s0.8-4.4,2.5-6.1
		s3.7-2.5,6.1-2.5s4.4,0.8,6.1,2.5S128.5,342.7,128.5,345.1z"/>
	<path class="st2" d="M224,306.1h3.3v-26.4c0-2,0.7-3.7,2.1-5.2c1.4-1.4,3.2-2.1,5.2-2.1c2,0,3.7,0.7,5.2,2.1
		c1.4,1.4,2.1,3.2,2.1,5.2v26.4h8.8c2,0,3.7,0.7,5.1,2.1c1.4,1.4,2.1,3.2,2.1,5.2c0,2.1-0.7,3.8-2.1,5.2c-1.4,1.4-3.1,2.1-5.1,2.1
		H242v35.4c0,9.3,4.7,14,14.1,14c2,0,3.7,0.7,5.1,2.1c1.4,1.4,2.1,3.2,2.1,5.2c0,2.1-0.7,3.8-2.1,5.2c-1.4,1.4-3.1,2.1-5.1,2.1
		c-19.2,0-28.8-9.6-28.8-28.7v-35.4H224c-2,0-3.7-0.7-5.1-2.1c-1.4-1.4-2.1-3.2-2.1-5.2c0-2,0.7-3.7,2.1-5.2
		C220.3,306.8,222,306.1,224,306.1z"/>
	<path class="st2" d="M337.4,377.5v-1.4c-3.5,2.8-7.3,5-11.5,6.5c-4.1,1.5-8.5,2.2-13.2,2.2c-10.9,0-20.2-3.8-27.8-11.5
		c-7.7-7.7-11.5-17-11.5-27.8c0-10.9,3.8-20.2,11.5-27.8c7.7-7.7,17-11.5,27.8-11.5c10.8,0,20.1,3.8,27.8,11.5
		c7.7,7.7,11.5,17,11.5,27.8v32.1c0,2-0.7,3.7-2.1,5.2c-1.4,1.4-3.2,2.1-5.2,2.1c-2.1,0-3.8-0.7-5.2-2.1
		C338.1,381.2,337.4,379.5,337.4,377.5z M312.7,320.8c-3.5,0-6.7,0.7-9.7,2c-3,1.3-5.6,3.1-7.8,5.3c-2.2,2.2-3.9,4.8-5.2,7.8
		c-1.3,3-1.9,6.2-1.9,9.6s0.6,6.6,1.9,9.6c1.3,3,3,5.6,5.2,7.8c2.2,2.2,4.8,4,7.8,5.3c3,1.3,6.2,2,9.7,2c3.4,0,6.6-0.7,9.6-2
		c3-1.3,5.6-3.1,7.8-5.3s4-4.9,5.3-7.8c1.3-3,1.9-6.2,1.9-9.5s-0.6-6.5-1.9-9.5c-1.3-3-3-5.6-5.3-7.8s-4.8-4-7.8-5.3
		C319.4,321.4,316.2,320.8,312.7,320.8z"/>
	<path class="st2" d="M423.3,362.5c2.1,0,3.9,0.7,5.2,2.1c1.4,1.4,2.1,3.1,2.1,5.2c0,2.1-0.8,3.9-2.3,5.4
		c-7.3,6.4-15.8,9.6-25.7,9.6c-10.9,0-20.2-3.8-27.8-11.5c-7.7-7.7-11.5-17-11.5-27.8c0-10.9,3.8-20.2,11.5-27.8
		c7.7-7.7,17-11.5,27.8-11.5c9.9,0,18.4,3.2,25.7,9.6c1.7,1.5,2.5,3.4,2.5,5.6c0,2.1-0.7,3.9-2.1,5.3s-3.1,2.1-5.2,2.1
		c-1.8,0-3.4-0.6-4.8-1.7c-2.4-2-4.9-3.5-7.5-4.6c-2.6-1-5.5-1.5-8.6-1.5c-3.4,0-6.6,0.6-9.6,1.9c-3,1.3-5.6,3-7.9,5.3
		c-2.2,2.2-4,4.8-5.3,7.8c-1.3,3-1.9,6.2-1.9,9.6c0,3.4,0.6,6.6,1.9,9.6c1.3,3,3.1,5.6,5.3,7.8c2.2,2.2,4.9,4,7.9,5.3
		c3,1.3,6.2,1.9,9.6,1.9c3.1,0,6-0.5,8.6-1.5c2.6-1,5.1-2.5,7.5-4.5C419.9,363.1,421.5,362.6,423.3,362.5z"/>
	<path class="st2" d="M520.9,345.4c0,11-3.8,20.2-11.5,27.8c-7.8,7.7-17.1,11.5-27.8,11.5c-10.9,0-20.2-3.8-27.8-11.5
		c-7.7-7.7-11.5-17-11.5-27.8c0-10.9,3.8-20.2,11.5-27.8c7.7-7.7,17-11.5,27.8-11.5c10.8,0,20.1,3.8,27.8,11.5
		c3.8,3.8,6.7,8.1,8.6,12.7S520.8,340,520.9,345.4z M481.5,320.8c-3.5,0-6.7,0.7-9.7,2c-3,1.3-5.6,3.1-7.8,5.3
		c-2.2,2.2-3.9,4.8-5.2,7.8c-1.3,3-1.9,6.2-1.9,9.6s0.6,6.6,1.9,9.6c1.3,3,3,5.6,5.2,7.8c2.2,2.2,4.8,4,7.8,5.3c3,1.3,6.2,2,9.7,2
		c3.4,0,6.6-0.7,9.6-2c3-1.3,5.6-3.1,7.8-5.3s4-4.9,5.3-7.8c1.3-3,1.9-6.2,1.9-9.5s-0.6-6.5-1.9-9.5c-1.3-3-3-5.6-5.3-7.8
		s-4.8-4-7.8-5.3C488.1,321.4,484.9,320.8,481.5,320.8z"/>
	<path class="st2" d="M218.9,320.8h6.1c4,0,7.3-3.3,7.3-7.3l0,0c0-4-3.3-7.3-7.3-7.3h-6.1c-4,0-7.3,3.3-7.3,7.3l0,0
		C211.6,317.5,214.9,320.8,218.9,320.8z"/>
</g>
</svg>
