<?xml version="1.0" encoding="utf-8"?>
<!-- Generator: Adobe Illustrator 19.0.1, SVG Export Plug-In . SVG Version: 6.00 Build 0)  -->
<svg version="1.1" id="Layer_1" xmlns="http://www.w3.org/2000/svg" xmlns:xlink="http://www.w3.org/1999/xlink" x="0px" y="0px"
	 viewBox="0 0 440.2470703 146.1796875" style="enable-background:new 0 0 440.2470703 146.1796875;" xml:space="preserve">
<style type="text/css">
	.st0{fill:#FFFFFF;}
	.st1{fill:#78ff00;}
</style>
<path class="st0" d="M39.375,33.75c9.3271484,0,17.5537109,2.8828125,24.6796875,8.6484375V7.3125
	c0-2.109375,0.6914062-3.8554688,2.0742188-5.2382812C67.5107422,0.6923828,69.2578125,0,71.3671875,0
	c2.0625,0,3.8076172,0.6923828,5.2382812,2.0742188C78.0351562,3.4570312,78.75,5.203125,78.75,7.3125V73.125
	c0,10.96875-3.84375,20.25-11.53125,27.84375C59.4375,108.6572266,50.15625,112.5,39.375,112.5
	c-10.875,0-20.15625-3.8427734-27.84375-11.53125C3.8427734,93.28125,0,84,0,73.125
	c0-10.8740234,3.8427734-20.1552734,11.53125-27.84375C19.21875,37.59375,28.5,33.75,39.375,33.75z M64.0546875,73.125
	c0-3.375-0.6445312-6.5498047-1.9335938-9.5273438c-1.2900391-2.9765625-3.0478516-5.5898438-5.2734375-7.8398438
	c-2.2265625-2.25-4.8408203-4.03125-7.8398438-5.34375c-3-1.3115234-6.2119141-1.96875-9.6328125-1.96875
	c-3.4697266,0-6.7041016,0.6572266-9.703125,1.96875c-3,1.3125-5.6015625,3.0830078-7.8046875,5.3085938
	c-2.2041016,2.2265625-3.9492188,4.8408203-5.2382812,7.8398438c-1.2900391,3-1.9335938,6.1875-1.9335938,9.5625
	s0.6435547,6.5634766,1.9335938,9.5625c1.2890625,3,3.0341797,5.6142578,5.2382812,7.8398438
	c2.203125,2.2265625,4.8046875,3.9970703,7.8046875,5.3085938c2.9990234,1.3125,6.2333984,1.96875,9.703125,1.96875
	c3.4208984,0,6.6328125-0.65625,9.6328125-1.96875c2.9990234-1.3115234,5.6132812-3.09375,7.8398438-5.34375
	c2.2255859-2.25,3.9833984-4.8623047,5.2734375-7.8398438C63.4101562,79.6757812,64.0546875,76.5,64.0546875,73.125z"/>
<path class="st0" d="M114.5390625,41.1328125v71.015625c0,4.640625-0.9033203,9.0234375-2.7070312,13.1484375
	c-1.8046875,4.1240234-4.2539062,7.734375-7.3476562,10.828125s-6.7041016,5.5429688-10.828125,7.3476562
	c-4.125,1.8037109-8.5078125,2.7070312-13.1484375,2.7070312c-2.109375,0-3.8564453-0.703125-5.2382812-2.109375
	c-1.3828125-1.40625-2.0742188-3.1640625-2.0742188-5.2734375s0.6914062-3.8564453,2.0742188-5.2382812
	c1.3818359-1.3828125,3.1289062-2.0742188,5.2382812-2.0742188c2.671875,0,5.1787109-0.5039062,7.5234375-1.5117188
	c2.34375-1.0087891,4.3945312-2.390625,6.1523438-4.1484375s3.1523438-3.8085938,4.1835938-6.1523438
	c1.0302734-2.3447266,1.546875-4.8515625,1.546875-7.5234375v-71.015625c0-2.0625,0.7138672-3.8076172,2.1445312-5.2382812
	C103.4882812,34.4648438,105.2109375,33.75,107.2265625,33.75c2.0146484,0,3.7373047,0.7148438,5.1679688,2.1445312
	C113.8242188,37.3251953,114.5390625,39.0703125,114.5390625,41.1328125z"/>
<path class="st1" d="M240.875,72.7578125c0,2.390625-0.84375,4.4296875-2.53125,6.1171875s-3.7265625,2.53125-6.1171875,2.53125
	s-4.4296875-0.84375-6.1171875-2.53125s-2.53125-3.7265625-2.53125-6.1171875s0.84375-4.4296875,2.53125-6.1171875
	s3.7265625-2.53125,6.1171875-2.53125s4.4296875,0.84375,6.1171875,2.53125S240.875,70.3671875,240.875,72.7578125z"/>
<path class="st1" d="M329.875,72.7578125c0,2.390625-0.84375,4.4296875-2.53125,6.1171875s-3.7265625,2.53125-6.1171875,2.53125
	s-4.4296875-0.84375-6.1171875-2.53125s-2.53125-3.7265625-2.53125-6.1171875s0.84375-4.4296875,2.53125-6.1171875
	s3.7265625-2.53125,6.1171875-2.53125s4.4296875,0.84375,6.1171875,2.53125S329.875,70.3671875,329.875,72.7578125z"/>
<path class="st1" d="M409.875,72.7578125c0,2.390625-0.84375,4.4296875-2.53125,6.1171875s-3.7265625,2.53125-6.1171875,2.53125
	s-4.4296875-0.84375-6.1171875-2.53125s-2.53125-3.7265625-2.53125-6.1171875s0.84375-4.4296875,2.53125-6.1171875
	s3.7265625-2.53125,6.1171875-2.53125s4.4296875,0.84375,6.1171875,2.53125S409.875,70.3671875,409.875,72.7578125z"/>
<path class="st1" d="M47.875,72.7578125c0,2.390625-0.84375,4.4296875-2.53125,6.1171875s-3.7265625,2.53125-6.1171875,2.53125
	S34.796875,80.5625,33.109375,78.875s-2.53125-3.7265625-2.53125-6.1171875s0.84375-4.4296875,2.53125-6.1171875
	s3.7265625-2.53125,6.1171875-2.53125s4.4296875,0.84375,6.1171875,2.53125S47.875,70.3671875,47.875,72.7578125z"/>
<path class="st0" d="M143.3876953,33.75h3.3046875V7.3125c0-2.0146484,0.7138672-3.7373047,2.1445312-5.1679688
	C150.2666016,0.7148438,152.0117188,0,154.0751953,0c2.0146484,0,3.7373047,0.7148438,5.1679688,2.1445312
	c1.4296875,1.4306641,2.1445312,3.1533203,2.1445312,5.1679688V33.75h8.7890625
	c2.0146484,0,3.7265625,0.7148438,5.1328125,2.1445312c1.40625,1.4306641,2.109375,3.1533203,2.109375,5.1679688
	c0,2.0634766-0.703125,3.8085938-2.109375,5.2382812c-1.40625,1.4306641-3.1181641,2.1445312-5.1328125,2.1445312h-8.7890625
	V83.8125c0,9.328125,4.6865234,13.9921875,14.0625,13.9921875c2.0146484,0,3.7265625,0.7148438,5.1328125,2.1445312
	c1.40625,1.4306641,2.109375,3.1533203,2.109375,5.1679688c0,2.0634766-0.703125,3.8085938-2.109375,5.2382812
	c-1.40625,1.4306641-3.1181641,2.1445312-5.1328125,2.1445312c-19.171875,0-28.7578125-9.5625-28.7578125-28.6875V48.4453125
	h-3.3046875c-1.96875,0-3.6679688-0.7138672-5.0976562-2.1445312c-1.4306641-1.4296875-2.1445312-3.1748047-2.1445312-5.2382812
	c0-2.0146484,0.7138672-3.7373047,2.1445312-5.1679688C139.7197266,34.4648438,141.4189453,33.75,143.3876953,33.75z"/>
<path class="st0" d="M256.8017578,105.1875v-1.40625c-3.515625,2.8125-7.3359375,4.96875-11.4609375,6.46875
	c-4.125,1.5009766-8.53125,2.25-13.21875,2.25c-10.875,0-20.15625-3.8427734-27.84375-11.53125
	c-7.6875-7.6875-11.53125-16.96875-11.53125-27.84375c0-10.8740234,3.84375-20.1552734,11.53125-27.84375
	c7.6875-7.6875,16.96875-11.53125,27.84375-11.53125c10.78125,0,20.0625,3.84375,27.84375,11.53125
	c7.6875,7.6884766,11.53125,16.9697266,11.53125,27.84375v32.0625c0,2.015625-0.7148438,3.7382812-2.1445312,5.1679688
	C267.9228516,111.7861328,266.2001953,112.5,264.1845703,112.5c-2.0625,0-3.8085938-0.7138672-5.2382812-2.1445312
	C257.5166016,108.9257812,256.8017578,107.203125,256.8017578,105.1875z M232.1220703,48.4453125
	c-3.46875,0-6.703125,0.6572266-9.703125,1.96875c-3,1.3125-5.6015625,3.0830078-7.8046875,5.3085938
	c-2.203125,2.2265625-3.9492188,4.8408203-5.2382812,7.8398438c-1.2890625,3-1.9335938,6.1875-1.9335938,9.5625
	s0.6445312,6.5634766,1.9335938,9.5625c1.2890625,3,3.0351562,5.6142578,5.2382812,7.8398438
	c2.203125,2.2265625,4.8046875,3.9970703,7.8046875,5.3085938c3,1.3125,6.234375,1.96875,9.703125,1.96875
	c3.421875,0,6.6328125-0.65625,9.6328125-1.96875c3-1.3115234,5.6132812-3.09375,7.8398438-5.34375
	s3.984375-4.8623047,5.2734375-7.8398438C256.1572266,79.6757812,256.8017578,76.5,256.8017578,73.125
	s-0.6445312-6.5498047-1.9335938-9.5273438c-1.2890625-2.9765625-3.046875-5.5898438-5.2734375-7.8398438
	s-4.8398438-4.03125-7.8398438-5.34375C238.7548828,49.1025391,235.5439453,48.4453125,232.1220703,48.4453125z"/>
<path class="st0" d="M342.6533203,90.2109375c2.109375,0,3.8554688,0.6923828,5.2382812,2.0742188
	c1.3828125,1.3828125,2.0742188,3.1289062,2.0742188,5.2382812c0,2.0634766-0.7734375,3.8671875-2.3203125,5.4140625
	c-7.265625,6.375-15.8203125,9.5625-25.6640625,9.5625c-10.875,0-20.15625-3.8427734-27.84375-11.53125
	c-7.6875-7.6875-11.53125-16.96875-11.53125-27.84375c0-10.8740234,3.84375-20.1552734,11.53125-27.84375
	c7.6875-7.6875,16.96875-11.53125,27.84375-11.53125c9.890625,0,18.4453125,3.1884766,25.6640625,9.5625
	c1.6875,1.5009766,2.53125,3.3515625,2.53125,5.5546875c0,2.109375-0.6914062,3.8671875-2.0742188,5.2734375
	S344.9736328,56.25,342.8642578,56.25c-1.78125,0-3.375-0.5625-4.78125-1.6875
	c-2.390625-2.0146484-4.8984375-3.5390625-7.5234375-4.5703125c-2.625-1.0302734-5.484375-1.546875-8.578125-1.546875
	c-3.421875,0-6.6328125,0.6445312-9.6328125,1.9335938c-3,1.2900391-5.625,3.0478516-7.875,5.2734375
	c-2.25,2.2265625-4.0195312,4.8408203-5.3085938,7.8398438c-1.2890625,3-1.9335938,6.2119141-1.9335938,9.6328125
	c0,3.421875,0.6445312,6.6337891,1.9335938,9.6328125c1.2890625,3,3.0585938,5.6142578,5.3085938,7.8398438
	c2.25,2.2265625,4.875,3.984375,7.875,5.2734375c3,1.2900391,6.2109375,1.9335938,9.6328125,1.9335938
	c3.09375,0,5.953125-0.5029297,8.578125-1.5117188c2.625-1.0078125,5.109375-2.5195312,7.453125-4.5351562
	C339.3251953,90.7734375,340.8720703,90.2578125,342.6533203,90.2109375z"/>
<path class="st0" d="M440.2470703,73.125c0,10.96875-3.84375,20.25-11.53125,27.84375
	c-7.78125,7.6884766-17.0625,11.53125-27.84375,11.53125c-10.875,0-20.15625-3.8427734-27.84375-11.53125
	c-7.6875-7.6875-11.53125-16.96875-11.53125-27.84375c0-10.8740234,3.84375-20.1552734,11.53125-27.84375
	c7.6875-7.6875,16.96875-11.53125,27.84375-11.53125c10.78125,0,20.0625,3.84375,27.84375,11.53125
	c3.84375,3.84375,6.7148438,8.0859375,8.6132812,12.7265625S440.2001953,67.6875,440.2470703,73.125z M400.8720703,48.4453125
	c-3.46875,0-6.703125,0.6572266-9.703125,1.96875c-3,1.3125-5.6015625,3.0830078-7.8046875,5.3085938
	c-2.203125,2.2265625-3.9492188,4.8408203-5.2382812,7.8398438c-1.2890625,3-1.9335938,6.1875-1.9335938,9.5625
	s0.6445312,6.5634766,1.9335938,9.5625c1.2890625,3,3.0351562,5.6142578,5.2382812,7.8398438
	c2.203125,2.2265625,4.8046875,3.9970703,7.8046875,5.3085938c3,1.3125,6.234375,1.96875,9.703125,1.96875
	c3.421875,0,6.6328125-0.65625,9.6328125-1.96875c3-1.3115234,5.6132812-3.09375,7.8398438-5.34375
	s3.984375-4.8623047,5.2734375-7.8398438C424.9072266,79.6757812,425.5517578,76.5,425.5517578,73.125
	s-0.6445312-6.5498047-1.9335938-9.5273438c-1.2890625-2.9765625-3.046875-5.5898438-5.2734375-7.8398438
	s-4.8398438-4.03125-7.8398438-5.34375C407.5048828,49.1025391,404.2939453,48.4453125,400.8720703,48.4453125z"/>
<path class="st0" d="M138.30867,48.4453125h6.0547028c4.0411987,0,7.347641-3.3064423,7.347641-7.3476486v-0.0000153
	c0-4.0412064-3.3064423-7.3476486-7.347641-7.3476486H138.30867c-4.041214,0-7.3476562,3.3064423-7.3476562,7.3476486v0.0000153
	C130.9610138,45.1388702,134.2674561,48.4453125,138.30867,48.4453125z"/>
</svg>
